<mxfile host="app.diagrams.net" modified="2022-04-12T04:53:26.463Z" agent="5.0 (Macintosh; Intel Mac OS X 10_15_7) AppleWebKit/537.36 (KHTML, like Gecko) Chrome/100.0.4896.75 Safari/537.36" etag="U2zSG6R4IIzGfjneZIJU" version="17.4.0" type="github">
  <diagram id="kB0L_LBbq_Od7LeM9ER5" name="Page-1">
    <mxGraphModel dx="1482" dy="910" grid="1" gridSize="10" guides="1" tooltips="1" connect="1" arrows="1" fold="1" page="1" pageScale="1" pageWidth="1100" pageHeight="850" math="0" shadow="0">
      <root>
        <mxCell id="0" />
        <mxCell id="1" parent="0" />
        <mxCell id="aw1Xjff3ypX7XEzYh5pD-27" value="" style="rounded=0;whiteSpace=wrap;html=1;fillColor=#ffe6cc;strokeColor=#d79b00;" parent="1" vertex="1">
          <mxGeometry x="960" y="100" width="160" height="340" as="geometry" />
        </mxCell>
        <mxCell id="aw1Xjff3ypX7XEzYh5pD-9" value="&lt;meta charset=&quot;utf-8&quot;&gt;&lt;span style=&quot;color: rgb(0, 0, 0); font-family: helvetica; font-size: 12px; font-style: normal; font-weight: 400; letter-spacing: normal; text-align: center; text-indent: 0px; text-transform: none; word-spacing: 0px; background-color: rgb(248, 249, 250); display: inline; float: none;&quot;&gt;Hash IDs&lt;/span&gt;" style="rounded=0;whiteSpace=wrap;html=1;fillColor=#f8cecc;strokeColor=#b85450;" parent="1" vertex="1">
          <mxGeometry x="560" y="100" width="330" height="340" as="geometry" />
        </mxCell>
        <mxCell id="aw1Xjff3ypX7XEzYh5pD-31" style="edgeStyle=orthogonalEdgeStyle;rounded=0;orthogonalLoop=1;jettySize=auto;html=1;exitX=1;exitY=0.5;exitDx=0;exitDy=0;" parent="1" source="aw1Xjff3ypX7XEzYh5pD-12" target="aw1Xjff3ypX7XEzYh5pD-28" edge="1">
          <mxGeometry relative="1" as="geometry" />
        </mxCell>
        <mxCell id="aw1Xjff3ypX7XEzYh5pD-51" value="ndjson" style="edgeLabel;html=1;align=center;verticalAlign=middle;resizable=0;points=[];" parent="aw1Xjff3ypX7XEzYh5pD-31" vertex="1" connectable="0">
          <mxGeometry x="0.4667" y="2" relative="1" as="geometry">
            <mxPoint x="4" as="offset" />
          </mxGeometry>
        </mxCell>
        <mxCell id="aw1Xjff3ypX7XEzYh5pD-12" value="PUT /fhir" style="rounded=1;whiteSpace=wrap;html=1;" parent="1" vertex="1">
          <mxGeometry x="580" y="130" width="110" height="40" as="geometry" />
        </mxCell>
        <mxCell id="tC_W04RjwTq3j-AX2zUA-2" style="edgeStyle=orthogonalEdgeStyle;rounded=0;orthogonalLoop=1;jettySize=auto;html=1;exitX=1;exitY=0.5;exitDx=0;exitDy=0;entryX=0;entryY=0.5;entryDx=0;entryDy=0;" edge="1" parent="1" source="aw1Xjff3ypX7XEzYh5pD-20" target="aw1Xjff3ypX7XEzYh5pD-32">
          <mxGeometry relative="1" as="geometry" />
        </mxCell>
        <mxCell id="tC_W04RjwTq3j-AX2zUA-10" value="DICOM" style="edgeLabel;html=1;align=center;verticalAlign=middle;resizable=0;points=[];" vertex="1" connectable="0" parent="tC_W04RjwTq3j-AX2zUA-2">
          <mxGeometry x="0.1044" relative="1" as="geometry">
            <mxPoint as="offset" />
          </mxGeometry>
        </mxCell>
        <mxCell id="aw1Xjff3ypX7XEzYh5pD-20" value="PUT /image" style="rounded=1;whiteSpace=wrap;html=1;" parent="1" vertex="1">
          <mxGeometry x="580" y="182.5" width="110" height="40" as="geometry" />
        </mxCell>
        <mxCell id="aw1Xjff3ypX7XEzYh5pD-22" value="PUT /signal?type=..." style="rounded=1;whiteSpace=wrap;html=1;" parent="1" vertex="1">
          <mxGeometry x="580" y="280" width="110" height="40" as="geometry" />
        </mxCell>
        <mxCell id="tC_W04RjwTq3j-AX2zUA-9" style="edgeStyle=orthogonalEdgeStyle;rounded=0;orthogonalLoop=1;jettySize=auto;html=1;exitX=1;exitY=0.5;exitDx=0;exitDy=0;" edge="1" parent="1" source="aw1Xjff3ypX7XEzYh5pD-24" target="aw1Xjff3ypX7XEzYh5pD-32">
          <mxGeometry relative="1" as="geometry" />
        </mxCell>
        <mxCell id="aw1Xjff3ypX7XEzYh5pD-24" value="Signal buffer (Redis)" style="rounded=0;whiteSpace=wrap;html=1;fillColor=#d5e8d4;strokeColor=#82b366;" parent="1" vertex="1">
          <mxGeometry x="800" y="235" width="80" height="85" as="geometry" />
        </mxCell>
        <mxCell id="aw1Xjff3ypX7XEzYh5pD-56" style="edgeStyle=orthogonalEdgeStyle;rounded=0;orthogonalLoop=1;jettySize=auto;html=1;exitX=1;exitY=0.5;exitDx=0;exitDy=0;entryX=1;entryY=0.75;entryDx=0;entryDy=0;dashed=1;" parent="1" source="aw1Xjff3ypX7XEzYh5pD-28" target="aw1Xjff3ypX7XEzYh5pD-32" edge="1">
          <mxGeometry relative="1" as="geometry">
            <Array as="points">
              <mxPoint x="1160" y="150" />
              <mxPoint x="1160" y="213" />
            </Array>
          </mxGeometry>
        </mxCell>
        <mxCell id="aw1Xjff3ypX7XEzYh5pD-59" value="URI" style="edgeLabel;html=1;align=center;verticalAlign=middle;resizable=0;points=[];" parent="aw1Xjff3ypX7XEzYh5pD-56" vertex="1" connectable="0">
          <mxGeometry x="0.0959" y="-1" relative="1" as="geometry">
            <mxPoint as="offset" />
          </mxGeometry>
        </mxCell>
        <mxCell id="aw1Xjff3ypX7XEzYh5pD-28" value="AidBox" style="rounded=1;whiteSpace=wrap;html=1;" parent="1" vertex="1">
          <mxGeometry x="990" y="130" width="110" height="40" as="geometry" />
        </mxCell>
        <mxCell id="tC_W04RjwTq3j-AX2zUA-8" style="edgeStyle=orthogonalEdgeStyle;rounded=0;orthogonalLoop=1;jettySize=auto;html=1;exitX=1;exitY=0.75;exitDx=0;exitDy=0;" edge="1" parent="1" source="aw1Xjff3ypX7XEzYh5pD-30" target="aw1Xjff3ypX7XEzYh5pD-24">
          <mxGeometry relative="1" as="geometry">
            <Array as="points">
              <mxPoint x="800" y="273" />
              <mxPoint x="800" y="278" />
            </Array>
          </mxGeometry>
        </mxCell>
        <mxCell id="aw1Xjff3ypX7XEzYh5pD-30" value="Hash IDs" style="rounded=0;whiteSpace=wrap;html=1;" parent="1" vertex="1">
          <mxGeometry x="700" y="130" width="80" height="190" as="geometry" />
        </mxCell>
        <mxCell id="aw1Xjff3ypX7XEzYh5pD-32" value="Orthanc" style="rounded=1;whiteSpace=wrap;html=1;" parent="1" vertex="1">
          <mxGeometry x="990" y="182.5" width="110" height="40" as="geometry" />
        </mxCell>
        <mxCell id="aw1Xjff3ypX7XEzYh5pD-42" style="edgeStyle=orthogonalEdgeStyle;rounded=0;orthogonalLoop=1;jettySize=auto;html=1;exitX=1;exitY=0.25;exitDx=0;exitDy=0;entryX=0;entryY=0.5;entryDx=0;entryDy=0;" parent="1" source="aw1Xjff3ypX7XEzYh5pD-37" target="aw1Xjff3ypX7XEzYh5pD-28" edge="1">
          <mxGeometry relative="1" as="geometry">
            <Array as="points">
              <mxPoint x="940" y="370" />
              <mxPoint x="940" y="150" />
            </Array>
          </mxGeometry>
        </mxCell>
        <mxCell id="aw1Xjff3ypX7XEzYh5pD-43" value="ndjson" style="edgeLabel;html=1;align=center;verticalAlign=middle;resizable=0;points=[];" parent="aw1Xjff3ypX7XEzYh5pD-42" vertex="1" connectable="0">
          <mxGeometry x="-0.3516" y="-2" relative="1" as="geometry">
            <mxPoint x="-3" y="1" as="offset" />
          </mxGeometry>
        </mxCell>
        <mxCell id="aw1Xjff3ypX7XEzYh5pD-37" value="Flush&lt;br&gt;buffer&lt;br&gt;every 1h" style="rounded=0;whiteSpace=wrap;html=1;" parent="1" vertex="1">
          <mxGeometry x="800" y="350" width="80" height="80" as="geometry" />
        </mxCell>
        <mxCell id="aw1Xjff3ypX7XEzYh5pD-49" style="edgeStyle=orthogonalEdgeStyle;rounded=0;orthogonalLoop=1;jettySize=auto;html=1;exitX=0.5;exitY=0;exitDx=0;exitDy=0;exitPerimeter=0;" parent="1" source="aw1Xjff3ypX7XEzYh5pD-46" target="aw1Xjff3ypX7XEzYh5pD-30" edge="1">
          <mxGeometry relative="1" as="geometry" />
        </mxCell>
        <mxCell id="aw1Xjff3ypX7XEzYh5pD-46" value="" style="sketch=0;aspect=fixed;pointerEvents=1;shadow=0;dashed=0;html=1;strokeColor=none;labelPosition=center;verticalLabelPosition=bottom;verticalAlign=top;align=center;fillColor=#00188D;shape=mxgraph.mscae.enterprise.key_permissions" parent="1" vertex="1">
          <mxGeometry x="727" y="342.5" width="26" height="50" as="geometry" />
        </mxCell>
        <mxCell id="aw1Xjff3ypX7XEzYh5pD-48" value="Site-specific&lt;br&gt;hashing salt" style="edgeLabel;html=1;align=center;verticalAlign=middle;resizable=0;points=[];" parent="1" vertex="1" connectable="0">
          <mxGeometry x="926" y="400" as="geometry">
            <mxPoint x="-184" y="18" as="offset" />
          </mxGeometry>
        </mxCell>
      </root>
    </mxGraphModel>
  </diagram>
</mxfile>
